<?xml version="1.0" standalone="no"?>
<!DOCTYPE svg PUBLIC "-//W3C//DTD SVG 20010904//EN"
 "http://www.w3.org/TR/2001/REC-SVG-20010904/DTD/svg10.dtd">
<svg version="1.0" xmlns="http://www.w3.org/2000/svg"
 width="2082.000000pt" height="2082.000000pt" viewBox="0 0 2082.000000 2082.000000"
 preserveAspectRatio="xMidYMid meet">
<metadata>
Created by potrace 1.14, written by Peter Selinger 2001-2017
</metadata>
<g transform="translate(0.000000,2082.000000) scale(0.100000,-0.100000)"
fill="#000000" stroke="none">
<path d="M11415 20684 c-50 -17 -101 -71 -114 -121 -9 -36 -15 -4153 -5 -4153
2 0 16 26 32 58 50 100 180 330 295 522 94 156 389 608 426 652 6 7 65 85 131
173 143 190 205 270 262 338 99 118 224 263 243 283 11 12 54 59 95 105 120
135 613 624 760 754 273 241 476 407 732 598 103 76 145 113 136 118 -52 29
-599 221 -793 278 -189 55 -401 114 -457 127 -10 2 -26 6 -36 8 -9 2 -37 9
-62 16 -25 7 -56 14 -70 17 -14 2 -50 10 -80 18 -58 15 -364 77 -465 95 -33 5
-69 12 -80 14 -11 2 -56 9 -100 16 -44 7 -89 14 -99 16 -11 2 -56 8 -100 14
-45 6 -92 13 -106 15 -14 2 -50 7 -80 10 -30 3 -66 8 -80 10 -40 6 -167 18
-300 29 -25 2 -64 -2 -85 -10z"/>
<path d="M5799 19763 c-24 -8 -48 -19 -54 -23 -5 -4 -68 -38 -140 -75 -141
-73 -243 -128 -290 -157 -16 -10 -37 -21 -45 -25 -110 -51 -828 -509 -838
-535 -2 -4 -8 -8 -13 -8 -20 0 -537 -395 -687 -525 -15 -12 -81 -69 -147 -126
-255 -220 -561 -516 -805 -779 -128 -137 -112 -119 -190 -210 -36 -41 -67 -77
-70 -80 -53 -49 -408 -498 -530 -669 -36 -51 -69 -97 -75 -104 -39 -48 -227
-331 -332 -497 -126 -202 -244 -405 -372 -643 -49 -90 -231 -454 -231 -460 0
-3 -22 -53 -50 -111 -27 -58 -50 -109 -50 -112 0 -3 -13 -34 -29 -68 -105
-228 -358 -917 -411 -1121 -4 -16 -20 -70 -34 -119 -28 -93 -122 -452 -130
-496 -2 -14 -14 -63 -25 -110 -11 -47 -23 -101 -26 -120 -3 -19 -12 -64 -20
-100 -21 -96 -60 -317 -80 -445 -2 -16 -9 -59 -14 -95 -10 -63 -15 -105 -26
-190 -3 -22 -7 -58 -10 -80 -3 -22 -7 -57 -10 -77 -2 -21 -7 -67 -10 -103 -3
-36 -8 -81 -10 -100 -2 -19 -7 -75 -10 -125 -4 -49 -9 -108 -11 -130 -25 -301
-25 -1069 1 -1420 2 -33 7 -98 10 -145 4 -47 8 -98 10 -115 2 -16 6 -61 10
-100 3 -38 8 -81 10 -95 2 -14 7 -52 10 -85 3 -33 8 -69 10 -80 2 -11 7 -47
10 -80 3 -33 8 -67 10 -75 2 -8 6 -35 9 -60 3 -25 8 -54 10 -65 2 -11 7 -42
10 -70 4 -27 9 -57 11 -65 3 -8 7 -31 9 -50 3 -19 8 -46 11 -60 3 -14 8 -41
11 -60 3 -19 7 -42 9 -50 2 -8 7 -31 10 -50 12 -69 77 -367 101 -463 14 -53
27 -107 30 -120 2 -12 22 -85 44 -162 22 -77 43 -150 45 -163 33 -146 256
-784 360 -1027 7 -16 25 -59 40 -95 101 -239 150 -345 284 -614 100 -200 144
-284 263 -496 265 -472 662 -1045 1028 -1483 366 -440 729 -814 1138 -1174
130 -115 212 -184 367 -310 392 -320 1037 -754 1460 -983 33 -18 85 -46 115
-63 30 -16 120 -63 198 -103 127 -65 150 -74 198 -74 66 0 120 30 155 87 l24
38 2 9200 c1 6201 -2 9211 -9 9233 -30 99 -135 149 -239 115z"/>
<path d="M18777 16363 c-1 -1 -78 -4 -172 -8 -189 -7 -286 -12 -390 -19 -38
-3 -106 -8 -150 -11 -44 -4 -91 -8 -105 -10 -14 -2 -59 -6 -100 -10 -89 -7
-297 -31 -360 -40 -14 -2 -47 -7 -75 -11 -27 -3 -57 -8 -66 -9 -9 -2 -40 -6
-69 -10 -29 -4 -62 -9 -74 -11 -11 -2 -36 -6 -56 -9 -20 -3 -45 -7 -55 -9 -11
-2 -40 -7 -65 -11 -25 -4 -54 -9 -65 -11 -11 -2 -47 -9 -80 -14 -33 -6 -89
-17 -125 -25 -36 -8 -81 -17 -100 -20 -19 -3 -132 -28 -250 -56 -118 -27 -224
-52 -235 -54 -18 -4 -51 -14 -240 -67 -38 -11 -74 -21 -80 -22 -72 -15 -515
-163 -730 -243 -246 -93 -391 -153 -603 -250 -41 -18 -76 -33 -78 -33 -9 0
-430 -212 -538 -271 -519 -285 -977 -604 -1412 -984 -152 -133 -466 -457 -584
-603 -19 -24 -42 -52 -50 -62 -8 -9 -26 -32 -40 -50 -14 -18 -30 -38 -35 -44
-55 -59 -335 -479 -335 -502 0 -3 -8 -18 -19 -32 -10 -15 -47 -83 -82 -152
l-64 -125 2 -3265 c4 -7329 7 -9043 20 -9078 16 -47 58 -88 109 -108 41 -15
89 -15 184 0 14 3 48 8 75 11 59 8 76 10 175 25 86 13 99 15 160 24 25 4 52 9
60 11 8 2 33 7 55 10 23 3 52 8 65 10 14 3 39 8 55 10 42 8 135 24 165 30 148
27 583 122 690 150 36 9 72 18 80 20 8 2 58 15 110 30 52 14 102 28 110 30 90
21 290 81 488 147 213 70 249 85 282 117 84 80 76 200 -20 291 -8 8 -34 38
-56 65 -204 251 -315 569 -309 884 3 152 9 196 40 328 97 409 350 729 709 896
119 56 316 112 466 131 53 7 261 8 308 2 18 -3 52 -8 75 -11 271 -39 556 -188
757 -396 97 -100 102 -106 169 -208 73 -111 118 -205 156 -321 40 -126 46
-140 73 -172 47 -56 146 -76 214 -44 38 19 124 86 357 281 53 44 114 96 136
116 22 20 90 80 150 134 61 54 225 214 365 354 247 247 296 299 425 446 33 37
65 73 71 79 84 90 465 568 554 696 14 19 28 40 33 45 97 119 531 791 591 915
4 8 12 24 19 35 170 279 483 933 630 1315 79 204 100 260 150 405 116 336 262
842 303 1048 2 10 6 27 9 37 3 10 8 27 10 37 2 10 15 74 30 143 32 155 32 156
40 205 3 22 7 47 10 55 10 37 61 354 80 505 3 22 7 56 10 75 18 138 34 284 39
360 2 25 6 79 10 120 23 275 30 471 30 850 0 291 -4 434 -19 680 -5 97 -16
234 -20 270 -3 19 -7 62 -10 95 -7 88 -14 146 -31 280 -9 66 -17 134 -20 150
-2 17 -6 46 -9 65 -3 19 -8 53 -11 75 -5 38 -20 132 -30 185 -2 14 -7 41 -10
60 -5 32 -80 405 -89 440 -2 8 -11 47 -20 85 -9 39 -18 77 -20 85 -53 240
-205 742 -323 1065 -70 192 -185 475 -258 633 -19 41 -34 76 -34 78 0 9 -227
464 -280 564 -85 156 -189 338 -258 450 -36 58 -70 114 -76 125 -18 32 -216
336 -240 370 -8 11 -37 51 -64 90 l-49 69 -82 1 c-46 0 -83 -1 -84 -2z"/>
</g>
</svg>
