<svg xmlns="http://www.w3.org/2000/svg" version="1.1" xmlns:xlink="http://www.w3.org/1999/xlink" xmlns:svgjs="http://svgjs.dev/svgjs" viewBox="0 0 800 800"><defs><radialGradient id="cccircular-grad" r="50%" cx="50%" cy="50%">
          <stop offset="50%" stop-color="hsl(0, 0%, 15%)" stop-opacity="0.5"></stop>
          <stop offset="100%" stop-color="#000000" stop-opacity="0.5"></stop>
        </radialGradient></defs><g fill="url(#cccircular-grad)"><circle r="1290.5" cx="400" cy="400"></circle><circle r="1246" cx="400" cy="400"></circle><circle r="1201.5" cx="400" cy="400"></circle><circle r="1157" cx="400" cy="400"></circle><circle r="1112.5" cx="400" cy="400"></circle><circle r="1068" cx="400" cy="400"></circle><circle r="1023.5" cx="400" cy="400"></circle><circle r="979" cx="400" cy="400"></circle><circle r="934.5" cx="400" cy="400"></circle><circle r="890" cx="400" cy="400"></circle><circle r="845.5" cx="400" cy="400"></circle><circle r="801" cx="400" cy="400"></circle><circle r="756.5" cx="400" cy="400"></circle><circle r="712" cx="400" cy="400"></circle><circle r="667.5" cx="400" cy="400"></circle><circle r="623" cx="400" cy="400"></circle><circle r="578.5" cx="400" cy="400"></circle><circle r="534" cx="400" cy="400"></circle><circle r="489.5" cx="400" cy="400"></circle><circle r="445" cx="400" cy="400"></circle><circle r="400.5" cx="400" cy="400"></circle><circle r="356" cx="400" cy="400"></circle><circle r="311.5" cx="400" cy="400"></circle><circle r="267" cx="400" cy="400"></circle><circle r="222.5" cx="400" cy="400"></circle><circle r="178" cx="400" cy="400"></circle><circle r="133.5" cx="400" cy="400"></circle><circle r="89" cx="400" cy="400"></circle></g></svg>