<?xml version="1.0" encoding="UTF-8"?>
<svg id="Layer_1" data-name="Layer 1" xmlns="http://www.w3.org/2000/svg" viewBox="0 0 205.91 255.99">
  <defs>
    <style>
      .cls-1 {
        stroke: #ff6beb;
      }

      .cls-1, .cls-2, .cls-3, .cls-4 {
        fill: none;
        stroke-miterlimit: 10;
        stroke-width: 1.5px;
      }

      .cls-2 {
        stroke: #8afcff;
      }

      .cls-3 {
        stroke: #ff614c;
      }

    </style>
  </defs>
  <path class="cls-3" d="M.22,29.99c30.13,3.78,69.79-14.52,103-11,35.59,3.77,67.6,29.09,102,32"/>
  <path class="cls-2" d="M.22,76.99c31.23,9.35,61.67,37.02,119,33,25.38-1.78,66.89-24.02,86-29"/>
  <path class="cls-1" d="M.72.49c18.18,21.1,65.4,22.79,81.5,65.5,38.17,101.29,93.65,49.99,123,56"/>
  <path class="cls-2" d="M.22,152.99c19.93.16,89.63,40.77,136,13,58.82-35.23,62.16-131.45,69-149"/>
  <path class="cls-4" d="M1.22,54.99c1.2,6.53,17.4,47.89,81,78,59.69,28.26,116.02,26.41,123,23"/>
  <path class="cls-3" d="M1.22,210.99c11.63-14.45,53.05-59.67,120-72,34.68-6.39,65.96-1.6,84,3"/>
  <path class="cls-1" d="M1.22,125.99c3.21,8.68,43.56,137.42,107,100,39-23,83.4-42.95,97-48"/>
</svg>