<svg xmlns="http://www.w3.org/2000/svg" version="1.1" xmlns:xlink="http://www.w3.org/1999/xlink" xmlns:svgjs="http://svgjs.dev/svgjs" viewBox="0 0 800 800"><defs><filter id="ssspot-filter" x="-20%" y="-20%" width="140%" height="140%" filterUnits="objectBoundingBox" primitiveUnits="userSpaceOnUse" color-interpolation-filters="sRGB">
	<feTurbulence type="turbulence" baseFrequency="0.022 0.218" numOctaves="2" seed="307" stitchTiles="stitch" x="0%" y="0%" width="100%" height="100%" result="turbulence"></feTurbulence>
	<feGaussianBlur stdDeviation="0 3" x="0%" y="0%" width="100%" height="100%" in="turbulence" edgeMode="duplicate" result="blur"></feGaussianBlur>
	<feDisplacementMap in="SourceGraphic" in2="blur" scale="32" xChannelSelector="R" yChannelSelector="B" x="0%" y="0%" width="100%" height="100%" result="displacementMap"></feDisplacementMap>
</filter></defs><rect width="100%" height="100%" fill="hsla(0, 0%, 100%, 0)"></rect><g fill="hsla(173, 58%, 39%, .3)" filter="url(#ssspot-filter)"><circle r="4.569489200941829" cx="397.54031262089137" cy="373.46213085941565" opacity="0.7572078913489337"></circle><circle r="6.987576896389978" cx="247.58294581435956" cy="711.3588534651633" opacity="0.9455063079499336"></circle><circle r="3.7729975229036623" cx="200.19250806702" cy="127.0574334777162" opacity="0.8496729337188601"></circle><circle r="4.544055311112996" cx="786.5249408939543" cy="622.1308555353464" opacity="0.7124356850736945"></circle><circle r="6.026939951054851" cx="130.1487186849115" cy="288.2690485265713" opacity="0.23071840870274327"></circle><circle r="6.394516143839042" cx="496.2162004135128" cy="207.9900690488477" opacity="0.7110338279673194"></circle><circle r="8.443854332595542" cx="102.17048463321727" cy="105.9770887276581" opacity="0.3378764490121927"></circle><circle r="4.7859963608425815" cx="244.09953219079537" cy="119.43329790617636" opacity="0.7263191485351895"></circle><circle r="6.065078789417698" cx="668.8659317113869" cy="284.80641425052147" opacity="0.9793318772314415"></circle><circle r="2.6819387562061885" cx="173.48365633347396" cy="233.87731702006104" opacity="0.1621388169337483"></circle><circle r="6.777661400012546" cx="583.4162558500392" cy="50.869004046542194" opacity="0.5389034660078089"></circle><circle r="4.0267231970495505" cx="326.3830049122225" cy="599.7498213990344" opacity="0.2725014191466811"></circle><circle r="7.2248876524419945" cx="388.6840887260352" cy="413.2069175707899" opacity="0.3848053065394744"></circle><circle r="3.3519747076988926" cx="778.7952676552904" cy="75.75713014810853" opacity="0.41800293238025854"></circle><circle r="7.102918747029997" cx="157.1140179819188" cy="566.2685072944385" opacity="0.8722322049659703"></circle><circle r="7.736437251089026" cx="378.5434532565765" cy="269.8815294479167" opacity="0.2983455206231223"></circle><circle r="7.100951981868159" cx="550.7491477131067" cy="690.385994170359" opacity="0.772326039890586"></circle><circle r="10.290621975380978" cx="629.8270126530285" cy="640.3685230030951" opacity="0.11559827469166703"></circle><circle r="8.319254819677804" cx="70.96877017534688" cy="777.9904737479851" opacity="0.43618329834091485"></circle><circle r="4.790824257960361" cx="653.3599174044069" cy="724.5621595528155" opacity="0.1594845661833862"></circle><circle r="5.422387616345157" cx="499.44344358704456" cy="772.6067289942945" opacity="0.2067981352186403"></circle><circle r="10.667280985061218" cx="250.8902753126343" cy="286.1584980871414" opacity="0.4544413820219291"></circle><circle r="4.285209138591906" cx="363.16900467314264" cy="319.8305385482644" opacity="0.9254375589208257"></circle><circle r="8.280877058441332" cx="781.1597777611621" cy="272.164150798313" opacity="0.7630920949498464"></circle><circle r="5.564719204323557" cx="293.3152098342459" cy="499.2831949736172" opacity="0.31060779690498785"></circle><circle r="8.523278235974734" cx="770.5007453333493" cy="536.5016413542238" opacity="0.500998627617066"></circle><circle r="6.140114566148021" cx="636.4221775268371" cy="599.8684473376993" opacity="0.6955866352363738"></circle><circle r="3.1395505921811413" cx="245.95643598209318" cy="64.88846852765185" opacity="0.31683085757462337"></circle><circle r="6.1604690918143366" cx="42.84102063375666" cy="750.2088725554214" opacity="0.15325872062648205"></circle><circle r="4.459479621798872" cx="459.6849740733378" cy="711.3105580686697" opacity="0.9668770886333915"></circle><circle r="4.589789492920453" cx="444.5007000406756" cy="175.17193407705454" opacity="0.39725849641440725"></circle><circle r="9.193230700285673" cx="553.9732198468141" cy="413.09866627168697" opacity="0.6069183800812071"></circle><circle r="6.177912300994217" cx="515.7652718009008" cy="578.7890176006761" opacity="0.5158944084970691"></circle><circle r="6.112578679469999" cx="689.5707576198228" cy="520.8532003816601" opacity="0.751770499840909"></circle><circle r="6.674542489195068" cx="57.75734095726521" cy="592.2183748715294" opacity="0.8015285029276035"></circle><circle r="7.084498467756701" cx="676.2208860841223" cy="589.3891182848027" opacity="0.8840796543896545"></circle><circle r="6.7066950343456835" cx="113.23772492429524" cy="358.95338641732246" opacity="0.6828565830587194"></circle><circle r="6.355644555914884" cx="92.25261846013696" cy="216.4027279634376" opacity="0.40609741511531505"></circle><circle r="4.228119850999332" cx="19.608034720532608" cy="607.5548168211735" opacity="0.734343555574966"></circle><circle r="3.838773383176577" cx="274.3501126281543" cy="697.0462944063141" opacity="0.6782366191347264"></circle><circle r="6.14124228777752" cx="721.3097413671646" cy="726.6841847127736" opacity="0.7954871465489137"></circle><circle r="8.33186391057592" cx="679.0951568551612" cy="662.6639362445065" opacity="0.7926904955831529"></circle><circle r="5.3837523184139355" cx="282.7748299162638" cy="366.3089787151532" opacity="0.8937091856907818"></circle><circle r="4.183645874571513" cx="494.64947438806934" cy="605.7636204611259" opacity="0.480498822573485"></circle><circle r="5.07776868260796" cx="644.9155241779794" cy="560.4514987892595" opacity="0.2583838867085947"></circle><circle r="6.86695868045981" cx="519.5925810611897" cy="269.6182772001265" opacity="0.8635448683369009"></circle><circle r="6.194621367008048" cx="376.7640549216175" cy="699.797040781817" opacity="0.4914108888993649"></circle><circle r="4.894284211389612" cx="470.49667176155975" cy="552.3016772834001" opacity="0.5872924398167458"></circle><circle r="5.070838898970805" cx="660.1546946845714" cy="19.455817490329828" opacity="0.7770231571543834"></circle><circle r="6.780606336897318" cx="665.0659281750698" cy="434.0844114520628" opacity="0.8461611704495647"></circle><circle r="6.332722838199702" cx="171.48760678851227" cy="443.1632834611911" opacity="0.15213454931937012"></circle><circle r="5.0850484633425115" cx="15.288938938833933" cy="529.9922809995542" opacity="0.2803866931036053"></circle><circle r="3.6865231931133815" cx="666.9304695083146" cy="144.1779250979138" opacity="0.3079395546651009"></circle><circle r="6.577912308952314" cx="131.4781193110779" cy="716.8737959730788" opacity="0.10465744837278593"></circle><circle r="4.900027767275145" cx="608.9504992532551" cy="338.89400937231943" opacity="0.7712773856985484"></circle><circle r="3.567988214196933" cx="788.7570995656009" cy="676.7921166950505" opacity="0.8400864827850976"></circle><circle r="7.57660016271536" cx="95.07762452591965" cy="442.7913752482513" opacity="0.1428101125621953"></circle><circle r="7.18540748021254" cx="124.65080467231579" cy="542.3323539562324" opacity="0.5976869279521527"></circle><circle r="4.298458764082031" cx="546.0057557639439" cy="652.6676772445999" opacity="0.43258217971476753"></circle><circle r="4.8108772764619" cx="244.62979924021263" cy="680.723507340172" opacity="0.6578461480904573"></circle><circle r="8.776297906978158" cx="43.445241319451874" cy="446.2796702464042" opacity="0.5384646134626139"></circle><circle r="6.4583875830224065" cx="525.0844425110886" cy="497.3069898264145" opacity="0.7114956611172544"></circle><circle r="5.669809816896789" cx="569.5320057543074" cy="626.7378050370029" opacity="0.15912419668526584"></circle><circle r="6.173365306301503" cx="137.39908027508568" cy="216.4579868614731" opacity="0.3798225417005494"></circle><circle r="5.004579289241253" cx="294.4774633020008" cy="476.34274839711856" opacity="0.7288003873040937"></circle><circle r="10.218543305921697" cx="209.44896338231723" cy="632.904030779586" opacity="0.9747911352912302"></circle><circle r="6.926577270373119" cx="721.2121175265851" cy="216.06519777782228" opacity="0.9196079483176653"></circle><circle r="4.338455208239939" cx="36.02563847266357" cy="92.6631272125668" opacity="0.6225504762535737"></circle><circle r="6.348996379049863" cx="253.688779148915" cy="223.81092396933013" opacity="0.3241745215121894"></circle><circle r="4.979397551590363" cx="621.6234609064354" cy="131.30206476136124" opacity="0.7537257152771274"></circle><circle r="6.066589284289571" cx="92.05032210539605" cy="653.2082325443282" opacity="0.5615851608417123"></circle><circle r="5.096986915871763" cx="346.9459543309566" cy="383.3440457670263" opacity="0.3707494005230014"></circle><circle r="3.225333601716924" cx="261.1902517923458" cy="136.52708792719466" opacity="0.22875778277273126"></circle><circle r="3.1405088711604634" cx="779.8513626546551" cy="658.3353936641631" opacity="0.8935460277951293"></circle><circle r="7.09177476419326" cx="562.721869421205" cy="158.88616423427663" opacity="0.6563233312939887"></circle><circle r="7.580279411402509" cx="12.093681848129126" cy="66.57159794239473" opacity="0.41077358156721777"></circle><circle r="4.293688776170209" cx="677.5812556263005" cy="553.319114695309" opacity="0.49445755139352887"></circle><circle r="10.737988292022699" cx="224.27905285897916" cy="366.2966588590058" opacity="0.18870286877733383"></circle><circle r="7.209660500599197" cx="57.513382974670485" cy="631.295388393765" opacity="0.8263408371942246"></circle><circle r="4.876137956550787" cx="279.1172089660417" cy="54.99735028625816" opacity="0.45975655344146116"></circle><circle r="5.546998310768242" cx="613.7422969132865" cy="74.91192515338638" opacity="0.4257709822983319"></circle><circle r="4.300343679558096" cx="346.447582588" cy="294.9831173614991" opacity="0.8919873685826409"></circle><circle r="4.900369591785571" cx="108.35456019302553" cy="763.8861085827232" opacity="0.6822829165555424"></circle><circle r="7.636973407547687" cx="282.563257494113" cy="245.9567304145825" opacity="0.7558918364450705"></circle><circle r="6.430200248926999" cx="561.4305728359464" cy="207.69196274636323" opacity="0.4166201331173699"></circle><circle r="9.06581619368043" cx="551.3883823052079" cy="560.995488453978" opacity="0.47096136536598965"></circle><circle r="6.614674219655539" cx="221.23154210898755" cy="220.74624500063635" opacity="0.21455483370213943"></circle><circle r="5.329141057378948" cx="49.55579387876197" cy="487.22200801419393" opacity="0.4248885470539929"></circle><circle r="3.759819312655009" cx="15.896525863314292" cy="587.825863224696" opacity="0.8158190664110226"></circle><circle r="5.005966114155131" cx="359.65794848750625" cy="84.8401262129184" opacity="0.22100673501933515"></circle><circle r="8.277201866049452" cx="57.453336368849875" cy="204.78302431220283" opacity="0.8058363238357468"></circle><circle r="4.221077875329749" cx="141.8507810233672" cy="519.963963268732" opacity="0.44264612570098083"></circle><circle r="4.6180198158990295" cx="68.60477337400796" cy="101.00142196892817" opacity="0.3502409604853346"></circle><circle r="5.6784428408262535" cx="285.6738300498401" cy="311.1850130115554" opacity="0.2982955801774674"></circle><circle r="9.842961827454655" cx="691.884944076925" cy="174.8342784517824" opacity="0.3843224358912829"></circle><circle r="5.989557258830561" cx="745.4954746495577" cy="16.094059216846617" opacity="0.6527381143554352"></circle><circle r="5.867899029983985" cx="711.3512197607338" cy="12.89634380686898" opacity="0.11839462671069627"></circle><circle r="3.924342549402811" cx="229.90969519050068" cy="145.55357678616403" opacity="0.4363060229776373"></circle><circle r="3.707746442147778" cx="738.000867390362" cy="102.82564509629205" opacity="0.6879484360067806"></circle><circle r="5.625590342323001" cx="618.6739414328507" cy="541.612073039508" opacity="0.1230549833205239"></circle><circle r="3.326493556331572" cx="784.689594223977" cy="99.32839459868478" opacity="0.3147050611409078"></circle><circle r="3.8632105408599484" cx="769.9220132854756" cy="114.88112897219729" opacity="0.3998586041072295"></circle><circle r="6.090190951054744" cx="461.2591788588872" cy="785.5966953119827" opacity="0.2218718984040917"></circle><circle r="3.8754314843770965" cx="617.2781730339414" cy="569.2985335036798" opacity="0.2903915792108045"></circle><circle r="8.320310816540825" cx="299.43194557798665" cy="715.6382020479947" opacity="0.57061431487417"></circle><circle r="8.878497091681497" cx="565.6832123031386" cy="502.5361684030593" opacity="0.6114130573773704"></circle><circle r="6.35257802248724" cx="16.702422239565085" cy="651.6620422349407" opacity="0.5476867217449305"></circle><circle r="7.992442617991869" cx="750.5328099843193" cy="303.9502044789365" opacity="0.6666478546224829"></circle><circle r="5.892968143809702" cx="710.4413083249212" cy="290.0068377471677" opacity="0.9642486394396845"></circle><circle r="6.5123372304777165" cx="431.13858505180366" cy="382.93962234284345" opacity="0.7698969228741476"></circle><circle r="6.790748881321605" cx="636.4467353331315" cy="514.5160751493027" opacity="0.9275302217149477"></circle><circle r="5.830389504233747" cx="605.0200572552553" cy="104.12874438317064" opacity="0.22407006120418144"></circle><circle r="3.979426367519035" cx="568.2732777920698" cy="129.08187433384305" opacity="0.2491830287431888"></circle><circle r="6.767673239419713" cx="589.9894593857704" cy="14.747597643864529" opacity="0.30455270357888864"></circle><circle r="7.091868040067587" cx="592.8900904359696" cy="388.7510540840479" opacity="0.6175649537771437"></circle><circle r="4.432254964681815" cx="93.81070791122336" cy="506.4042504378035" opacity="0.5279613426675149"></circle><circle r="4.767152928781986" cx="13.734551603182" cy="358.8709855631007" opacity="0.7867957376237137"></circle><circle r="6.464677938898248" cx="113.80296747331374" cy="683.608663457567" opacity="0.49794871185721956"></circle><circle r="6.232725338717886" cx="537.7202809796947" cy="186.13798690461977" opacity="0.18379719829908264"></circle><circle r="9.043675102612948" cx="729.4685664058035" cy="347.07682924816993" opacity="0.7835251389576884"></circle><circle r="9.167049016926438" cx="488.30538568317365" cy="248.44785017863083" opacity="0.7704034115350096"></circle><circle r="6.185659665887406" cx="782.0998721952328" cy="434.4731638997002" opacity="0.7544780249425037"></circle><circle r="5.388082209213258" cx="284.8376612868425" cy="99.60377216660191" opacity="0.9744732269380548"></circle><circle r="10.18695861885871" cx="210.9837092828205" cy="310.0126366234505" opacity="0.3074911769915416"></circle><circle r="3.4998152438210366" cx="570.3156782582995" cy="256.449051967388" opacity="0.1728185879764927"></circle><circle r="6.712402578946115" cx="596.2160140949312" cy="672.1565253012826" opacity="0.8951194476401987"></circle><circle r="7.582865066666794" cx="605.267726919187" cy="163.6291369865005" opacity="0.21171030291550672"></circle><circle r="6.622090438394489" cx="636.655603422894" cy="455.3258882214106" opacity="0.11425399629157805"></circle><circle r="5.8095834249562195" cx="180.99561331011324" cy="729.8918921196091" opacity="0.9544189191699868"></circle><circle r="6.857199426102996" cx="100.05526233816879" cy="568.5996913449054" opacity="0.19945780276752087"></circle><circle r="5.19494968508222" cx="198.27580887474778" cy="683.1655052465271" opacity="0.6679231756124508"></circle><circle r="3.820464833770576" cx="726.0219874768211" cy="429.97000939926977" opacity="0.23802067650518843"></circle><circle r="8.407321987692887" cx="587.6859421999906" cy="754.7510612137569" opacity="0.725779158222696"></circle><circle r="4.960460710636671" cx="223.98419901338073" cy="493.5516095052132" opacity="0.368477181785957"></circle><circle r="4.337041489080012" cx="570.2772709897788" cy="77.89896944429205" opacity="0.18171565709246307"></circle><circle r="4.78266932685046" cx="444.4812848742453" cy="533.6920758651786" opacity="0.6740779517476319"></circle><circle r="7.137132935426402" cx="545.2551249343602" cy="49.19930607273104" opacity="0.3879476511234997"></circle><circle r="6.448780891597197" cx="218.9970404449827" cy="517.1173026254077" opacity="0.2760467499287257"></circle><circle r="6.004885766708403" cx="48.338334211327115" cy="54.128360831734746" opacity="0.7796410335365777"></circle><circle r="8.895863442097333" cx="69.93119622141835" cy="254.02809846391312" opacity="0.4053332507996573"></circle><circle r="6.686779673758128" cx="75.85513698581565" cy="475.3675341560805" opacity="0.5783753975003361"></circle><circle r="4.782123860190344" cx="292.8968246007393" cy="204.86308435091146" opacity="0.20159421431904323"></circle><circle r="6.214039693908123" cx="434.3954922055863" cy="299.5247462384981" opacity="0.4667402595879775"></circle><circle r="4.391233461074287" cx="34.315167172643" cy="17.40423516649529" opacity="0.9046210181776023"></circle><circle r="5.508687345020855" cx="207.1726662357078" cy="405.6971625558373" opacity="0.408636647234337"></circle><circle r="7.245596155273727" cx="539.1730425754048" cy="599.8511693503541" opacity="0.9816945296456674"></circle><circle r="5.77939721830969" cx="680.21005081842" cy="55.71176905541326" opacity="0.19341481311425693"></circle><circle r="8.10496506879189" cx="453.23158894945277" cy="22.174370194920243" opacity="0.16888452626587874"></circle><circle r="7.46506666208732" cx="229.9027709804433" cy="16.977709840538516" opacity="0.2951288595402677"></circle><circle r="11.381373809050416" cx="774.6436280925615" cy="487.5047498886127" opacity="0.28296588039955706"></circle><circle r="5.786551336448584" cx="524.3690489061294" cy="90.7656072300791" opacity="0.24286728377730268"></circle><circle r="4.135556300939687" cx="313.65311992443714" cy="121.48745952675516" opacity="0.2682112674023597"></circle><circle r="6.735423301756679" cx="300.5458921971387" cy="21.05839499997011" opacity="0.6276963950275469"></circle><circle r="5.701005925386756" cx="786.9615706951028" cy="145.5922227217753" opacity="0.7457380021432527"></circle><circle r="4.316790583138919" cx="48.96354606089823" cy="715.8607041157246" opacity="0.9719497952748237"></circle><circle r="4.794088797283874" cx="664.7303415949918" cy="356.7641350273875" opacity="0.9216563991798904"></circle><circle r="6.667887666710294" cx="299.7579588992935" cy="669.9683244740365" opacity="0.17150315431318153"></circle><circle r="4.7515448468467545" cx="431.67533067623384" cy="573.7368464344628" opacity="0.9220330512796502"></circle><circle r="6.204067155333031" cx="719.5894315933099" cy="76.84467124645191" opacity="0.7971481897657781"></circle><circle r="7.085481617973956" cx="588.1128706253828" cy="576.9070782342191" opacity="0.159623745239614"></circle><circle r="4.579886636945455" cx="248.9196788346534" cy="626.5447021403558" opacity="0.40540768710347985"></circle><circle r="8.393488232841797" cx="408.9702986467575" cy="674.057351779633" opacity="0.13337452998723434"></circle><circle r="6.386570528596345" cx="747.4154734600982" cy="131.34728488027434" opacity="0.11297875901725576"></circle><circle r="10.513472908648982" cx="188.66323322623418" cy="30.576594319366396" opacity="0.44493053493213364"></circle><circle r="8.752595841049196" cx="680.4819933296184" cy="626.9271995893589" opacity="0.9770175210367386"></circle><circle r="4.222270516974196" cx="765.0059060465318" cy="35.46106134182187" opacity="0.8283230392208506"></circle><circle r="8.171446231555807" cx="119.85601844471051" cy="243.19955820951412" opacity="0.2597839053305465"></circle><circle r="10.193519831344334" cx="164.15664092932315" cy="614.2918192699035" opacity="0.915759659366294"></circle><circle r="9.126104308669703" cx="768.5643721243799" cy="774.6790009286478" opacity="0.700498504372292"></circle><circle r="5.282008644844771" cx="507.8596038848594" cy="37.02502282241164" opacity="0.9674952316995092"></circle><circle r="5.458993246397024" cx="709.2837622530808" cy="40.708095862702066" opacity="0.8904212747171617"></circle><circle r="5.89006218041539" cx="733.8023107757218" cy="190.57291464250164" opacity="0.9681331317460857"></circle><circle r="10.94098099180474" cx="640.7180859808641" cy="394.756081236928" opacity="0.7193379945106377"></circle><circle r="5.5492349260276095" cx="721.8802537804802" cy="605.2282513357746" opacity="0.3408298606697905"></circle><circle r="4.305599707229419" cx="753.7910068316215" cy="224.95180210206294" opacity="0.2023984148264281"></circle><circle r="5.26627454060504" cx="451.63424000249336" cy="246.18248259966373" opacity="0.8955410155737441"></circle><circle r="5.739391579712354" cx="313.56029561041703" cy="460.7427015561615" opacity="0.9259469260655964"></circle><circle r="7.199920814771396" cx="548.7661069823044" cy="15.146511596009264" opacity="0.2576939757639255"></circle><circle r="6.913401699135639" cx="335.0781427959284" cy="641.0103125165621" opacity="0.3087850381097916"></circle><circle r="10.03552859626349" cx="470.3703271460146" cy="338.09031083937475" opacity="0.8160870349000173"></circle><circle r="7.660403745109669" cx="500.7816173552219" cy="419.65293622726625" opacity="0.8294726933942151"></circle><circle r="4.779367089734873" cx="20.135274767665425" cy="626.9529532158366" opacity="0.3633069292265194"></circle><circle r="2.882914177363957" cx="17.644501362387803" cy="724.0781261220695" opacity="0.596882882760997"></circle><circle r="6.882536579972449" cx="599.2505574509241" cy="443.6301555257826" opacity="0.23464033175413881"></circle><circle r="4.76826034276786" cx="691.8876271408421" cy="492.16241914473557" opacity="0.6056465094688125"></circle><circle r="2.9756987480238575" cx="704.0811533249629" cy="473.8436696400957" opacity="0.6473283695455844"></circle><circle r="8.662001436404458" cx="534.8485298502482" cy="361.39101476770765" opacity="0.17451895391465633"></circle><circle r="8.055654537243063" cx="382.87635256782346" cy="66.33204695379065" opacity="0.9569059301456684"></circle><circle r="4.320623240875438" cx="238.0715497222719" cy="657.8900698834946" opacity="0.9669421376258099"></circle><circle r="6.311768576999106" cx="720.4806775918806" cy="643.9131809226334" opacity="0.3958359827323925"></circle><circle r="10.164022698866304" cx="550.6363533223549" cy="456.72463858676457" opacity="0.44238917429192537"></circle><circle r="6.92512586072986" cx="650.6345141185269" cy="784.1963801081879" opacity="0.39981350415571515"></circle><circle r="3.672641008067901" cx="163.63431262544125" cy="139.10565193054043" opacity="0.46330860393720974"></circle><circle r="6.915298636757932" cx="580.9860153622719" cy="537.521545120131" opacity="0.4899141298547771"></circle><circle r="5.3733453957730015" cx="389.6539071945194" cy="770.6426362551974" opacity="0.23797700182335987"></circle><circle r="6.285366327684942" cx="351.75580218934033" cy="781.8244063373365" opacity="0.20126956999652235"></circle><circle r="6.578268983002687" cx="412.8359155507949" cy="501.8961719669487" opacity="0.6888189307045316"></circle><circle r="4.9637498317343605" cx="510.677647798853" cy="125.35491333323588" opacity="0.5511093797207235"></circle><circle r="7.507620526326964" cx="598.6356426145734" cy="612.6629852366995" opacity="0.32301207194787784"></circle><circle r="5.30295557034979" cx="387.57546507941805" cy="223.9408809261123" opacity="0.4167222855433236"></circle><circle r="7.53709633854899" cx="628.8038289819315" cy="756.2242736979416" opacity="0.8780485393963567"></circle><circle r="8.501910320858343" cx="721.136435322802" cy="151.238027044522" opacity="0.5436238776622495"></circle><circle r="9.854864755462533" cx="70.39971930837885" cy="152.8110879027406" opacity="0.8339950936069362"></circle><circle r="8.142021236798668" cx="347.4101181515461" cy="436.1737216234904" opacity="0.23972570686185454"></circle><circle r="6.109342490522447" cx="785.4410856742339" cy="50.842933822727154" opacity="0.762563804802342"></circle><circle r="5.84825420969335" cx="708.2421047331881" cy="116.71898952844121" opacity="0.2736109581348367"></circle><circle r="5.707856587939933" cx="595.1191315105542" cy="130.70154956112702" opacity="0.8808438974356505"></circle><circle r="6.993095931819916" cx="20.877364732941352" cy="247.5843389039078" opacity="0.5180406473668508"></circle><circle r="4.04834901623742" cx="428.718400591276" cy="605.4922137226373" opacity="0.5992318711304621"></circle><circle r="5.577565753591489" cx="454.5712358468875" cy="588.7481217686351" opacity="0.19576678505570036"></circle><circle r="5.448320989087121" cx="427.2237552374542" cy="715.1545441976326" opacity="0.9635818770664915"></circle><circle r="6.205371834015077" cx="331.82077729670885" cy="59.456590095710645" opacity="0.469845267262058"></circle><circle r="4.380230939415361" cx="245.91998073588087" cy="469.9767448283659" opacity="0.6801981761340051"></circle><circle r="7.872625943517086" cx="60.659015470129354" cy="556.0292036293815" opacity="0.3169826209261821"></circle><circle r="6.65144458402759" cx="402.8292621685425" cy="730.5742042900897" opacity="0.15640337909114244"></circle><circle r="7.660216903424432" cx="335.19211714088266" cy="176.6781115974048" opacity="0.8798566908386674"></circle><circle r="6.470955358643303" cx="731.0234231315692" cy="511.6302720277828" opacity="0.47949005957380275"></circle><circle r="6.652058735424491" cx="719.0967526664468" cy="689.7188550684466" opacity="0.8084028437248346"></circle><circle r="9.403441404542296" cx="571.0228118159337" cy="349.7578613038974" opacity="0.25536360281678844"></circle><circle r="7.56346564054958" cx="299.97365248780204" cy="168.52725720226786" opacity="0.28217117774277667"></circle><circle r="6.104715463457344" cx="694.4382123385424" cy="330.49317858710634" opacity="0.5099351055413844"></circle><circle r="6.486854872906604" cx="544.3101193501516" cy="784.4608844117348" opacity="0.5125931363959224"></circle><circle r="3.4636235751120608" cx="499.829059663464" cy="13.445004724344686" opacity="0.1893174335230448"></circle><circle r="5.309049294845732" cx="659.1712702353092" cy="527.353265691744" opacity="0.45238093251197964"></circle><circle r="3.7965597352696716" cx="185.4696963555384" cy="180.76250337886947" opacity="0.3415608769159607"></circle><circle r="3.7971732683666244" cx="489.8331945349564" cy="655.2175150805298" opacity="0.1124157794337335"></circle><circle r="7.1706903160675255" cx="144.75042558406875" cy="769.5360247030736" opacity="0.79197725232786"></circle><circle r="7.546852305653447" cx="512.324918002659" cy="718.7115108315342" opacity="0.883284024595149"></circle><circle r="6.481026298657552" cx="57.99758958795104" cy="523.803383214943" opacity="0.5400386086259454"></circle><circle r="8.017908752077618" cx="394.3901971782032" cy="324.4865773514086" opacity="0.14275354414990762"></circle><circle r="9.2748193595292" cx="624.9093693206654" cy="285.39214481111037" opacity="0.609726871113181"></circle><circle r="8.360171086764215" cx="584.1514249297755" cy="710.2237468811763" opacity="0.48811373547868186"></circle><circle r="6.987954969357252" cx="505.4917825800356" cy="374.8630235877629" opacity="0.9861442776727021"></circle><circle r="6.930435722621709" cx="90.46168238021772" cy="610.6151688165285" opacity="0.47605885858330843"></circle><circle r="7.161098287986906" cx="517.4436133876511" cy="627.4407820958554" opacity="0.41000450557717283"></circle><circle r="5.125187500780884" cx="415.4872295635936" cy="261.48443359353536" opacity="0.45985915917905784"></circle><circle r="9.596206665035265" cx="204.25339400964546" cy="588.5232342145694" opacity="0.23316588303518818"></circle><circle r="5.632482367009807" cx="189.4393503869405" cy="542.5558198614732" opacity="0.7672973031836476"></circle><circle r="3.7513041594504846" cx="491.4285973788457" cy="173.66853306877383" opacity="0.763199222279286"></circle><circle r="7.855261538075107" cx="515.0265754685681" cy="675.3686771094896" opacity="0.5937268185105313"></circle><circle r="2.863686112585367" cx="760.3089891857094" cy="154.94831581973003" opacity="0.3945570278280801"></circle><circle r="7.855065143953925" cx="320.35656985509223" cy="363.0763904053887" opacity="0.2687395406546782"></circle><circle r="4.060184415225205" cx="326.1028120464456" cy="567.8566862823765" opacity="0.8612284793615157"></circle><circle r="3.4382329492802897" cx="142.44830236212977" cy="490.7337913769912" opacity="0.735330103692199"></circle><circle r="8.442390201501153" cx="642.8627998438457" cy="105.26464557223593" opacity="0.37335694957087995"></circle><circle r="4.116170225959734" cx="710.5755975820884" cy="454.52297847603836" opacity="0.4454721832017158"></circle><circle r="8.49326955229991" cx="124.51792454733256" cy="591.7741507729019" opacity="0.3939387177560977"></circle><circle r="4.56301980000522" cx="209.20965755176007" cy="162.42981314083096" opacity="0.6938754145921591"></circle><circle r="4.550655073704567" cx="356.85802905912755" cy="205.81318261267205" opacity="0.8764872988759126"></circle><circle r="7.825359024881063" cx="273.8142417751127" cy="521.361803070061" opacity="0.279700112553552"></circle><circle r="4.430769793892594" cx="361.38158617352997" cy="473.50378611265506" opacity="0.8819535584286516"></circle><circle r="6.136048735337164" cx="268.59445440835185" cy="187.7006161602509" opacity="0.7097409443324296"></circle><circle r="6.480567916180815" cx="354.48932735751146" cy="544.1739548979774" opacity="0.11259267962885941"></circle><circle r="6.001424798040604" cx="698.8075796301811" cy="785.8101354521148" opacity="0.5171452550645629"></circle><circle r="8.141731903863164" cx="54.44697104560305" cy="371.1024766669269" opacity="0.5524386474717838"></circle><circle r="7.148821493041336" cx="72.13972960603203" cy="406.8861840771664" opacity="0.6318437762863327"></circle><circle r="8.540653341478098" cx="402.71903114101445" cy="118.90352691650585" opacity="0.33563165626397007"></circle><circle r="5.376163259523244" cx="747.2745792438294" cy="675.9135147179575" opacity="0.5231515188254644"></circle><circle r="5.986789905694792" cx="658.5647508430571" cy="485.65384102571545" opacity="0.8780762144336451"></circle><circle r="6.6397973717253045" cx="263.8158792794627" cy="25.381998594274474" opacity="0.9535718963502835"></circle><circle r="7.302639497442482" cx="174.46260993664077" cy="502.44929029324004" opacity="0.17665597770886088"></circle><circle r="4.408340927402534" cx="588.8709671069324" cy="284.172186877411" opacity="0.7528789054984938"></circle><circle r="5.991383075172941" cx="499.0194104993784" cy="460.91341565198485" opacity="0.4572607058566347"></circle><circle r="2.1903687598093264" cx="791.419439311149" cy="18.124763842525162" opacity="0.8796717630845824"></circle><circle r="7.075250764087922" cx="532.8664261779804" cy="754.18537450508" opacity="0.42024621102218707"></circle><circle r="4.242035779043129" cx="761.4055642361255" cy="727.8339518095473" opacity="0.375059126780669"></circle><circle r="5.80077373052605" cx="303.7844750731756" cy="72.31552812343023" opacity="0.8029945110628799"></circle><circle r="3.630098418908367" cx="192.51604483377918" cy="216.55851146341598" opacity="0.4069489076468604"></circle><circle r="5.9717421024304205" cx="750.3209359145092" cy="446.9172876523464" opacity="0.3658146168457954"></circle><circle r="5.476581068448212" cx="505.3127376349198" cy="62.17407830396718" opacity="0.6263535379015761"></circle><circle r="4.902434274693794" cx="14.743510722497268" cy="474.5882524543074" opacity="0.4063721582586818"></circle><circle r="5.045539593522455" cx="363.8913535707553" cy="670.2348939863318" opacity="0.2573593455813006"></circle><circle r="4.8422072425801055" cx="263.54096478637547" cy="160.34891687437508" opacity="0.7112475882979618"></circle><circle r="7.860925002013727" cx="371.82577740142995" cy="513.990777325584" opacity="0.5480709119974883"></circle><circle r="5.012224612964713" cx="559.1616020207618" cy="236.15250165083037" opacity="0.7034457615009317"></circle><circle r="4.745495030953274" cx="198.85694336025597" cy="749.7944747008315" opacity="0.6732352643410444"></circle><circle r="3.8266240956861006" cx="274.2860409216105" cy="653.560811281156" opacity="0.4802140405963631"></circle><circle r="6.849450399037362" cx="243.13032717612154" cy="414.2309052363464" opacity="0.5874492817891726"></circle><circle r="6.590724097557542" cx="101.6198338592086" cy="276.2309977121062" opacity="0.7858705055110218"></circle><circle r="4.342006046897931" cx="518.877169319587" cy="156.8300270528785" opacity="0.7968729791822363"></circle><circle r="7.539747307357008" cx="759.7972048138341" cy="594.848889084652" opacity="0.6564133794339364"></circle><circle r="4.653957395877407" cx="71.68857785845658" cy="689.1190527857223" opacity="0.3967833683922123"></circle><circle r="3.626248183824166" cx="280.53056546519673" cy="443.85288727971664" opacity="0.7383105386146718"></circle><circle r="3.3077795889912935" cx="295.04090510461714" cy="138.08331704280434" opacity="0.1263247885053578"></circle><circle r="3.4694111747610124" cx="307.2576666045672" cy="436.10845110068414" opacity="0.48273021935875793"></circle><circle r="5.945657299926945" cx="21.222453984893473" cy="782.8820836666113" opacity="0.33302641562772684"></circle><circle r="5.349470312484408" cx="507.79782391212353" cy="530.3735844448412" opacity="0.6877687269123663"></circle><circle r="8.303390611134429" cx="172.62971512919748" cy="104.78795516640726" opacity="0.2429067931395251"></circle><circle r="10.708384589651313" cx="90.72323115358373" cy="38.91012203245937" opacity="0.690160001971105"></circle><circle r="6.217090159874274" cx="611.2851522913427" cy="485.7232207596009" opacity="0.3119741737388264"></circle><circle r="6.7656249355832765" cx="781.8583072078809" cy="186.5432904240504" opacity="0.5601521576302243"></circle><circle r="3.2291639484184547" cx="161.1352809057295" cy="272.7882031763581" opacity="0.9115271029316174"></circle><circle r="3.9131418285722592" cx="477.52346162220664" cy="635.2884675207689" opacity="0.6782123918406764"></circle><circle r="8.77374912574473" cx="720.8056768788118" cy="561.4275686371632" opacity="0.9650995324762621"></circle><circle r="9.05565156567744" cx="421.10682181230203" cy="207.96127282268057" opacity="0.6809985023044364"></circle><circle r="6.084091235906991" cx="269.33706134696837" cy="740.5314736281568" opacity="0.8800711359676326"></circle><circle r="7.335016909280658" cx="286.67581029723925" cy="781.0659432646491" opacity="0.9976336829565378"></circle><circle r="4.609346675002339" cx="186.2072770143096" cy="151.63069464136936" opacity="0.3754329444132716"></circle><circle r="8.982021942610471" cx="465.0172544397742" cy="492.9493722466379" opacity="0.12301844418940988"></circle><circle r="5.198122097717877" cx="368.7716436973063" cy="738.7749865335783" opacity="0.7823010715175346"></circle><circle r="8.916090677051724" cx="321.32200988694717" cy="748.5816765904112" opacity="0.3959545711913931"></circle><circle r="4.852100013829759" cx="560.1650908372205" cy="104.69029767566941" opacity="0.9648431628887866"></circle><circle r="6.891811536551421" cx="176.3853615992025" cy="348.7648077276449" opacity="0.3034173012738338"></circle><circle r="6.828216240784224" cx="208.6800682051581" cy="437.79910224981074" opacity="0.9429869838235099"></circle><circle r="4.440077381407672" cx="346.03264775567266" cy="719.2293889398852" opacity="0.7476830054796103"></circle><circle r="5.558552368897187" cx="91.94186029933026" cy="535.5518890332513" opacity="0.4047453504750198"></circle><circle r="8.508242783616055" cx="518.689120342673" cy="315.646517643816" opacity="0.8449324793059515"></circle><circle r="7.852355109381062" cx="346.9766654685854" cy="21.57167599078737" opacity="0.25012677549465734"></circle><circle r="7.739347448814798" cx="156.1253498875367" cy="312.8302127544289" opacity="0.3829072878773174"></circle><circle r="6.040119260371617" cx="18.406294096599495" cy="413.44243521883067" opacity="0.3219568479570781"></circle><circle r="7.38644319166386" cx="692.1213825818181" cy="222.8976862785786" opacity="0.4375137156971547"></circle><circle r="4.909381096054691" cx="598.9370845251892" cy="199.36672077250478" opacity="0.9712517372408818"></circle><circle r="5.155258981387721" cx="468.2237224005194" cy="383.05127713112233" opacity="0.8911714681738948"></circle><circle r="5.744479238652646" cx="166.86816019923558" cy="391.3322983271006" opacity="0.8064548998554755"></circle><circle r="3.8728104628322346" cx="749.3723110026239" cy="174.52346703407568" opacity="0.5961119498869959"></circle><circle r="7.701373803975658" cx="396.50550918900086" cy="169.75002064447673" opacity="0.640407999071426"></circle><circle r="3.9066369867305966" cx="11.992169068462873" cy="703.9401162632074" opacity="0.48971479252366135"></circle><circle r="5.89546565113737" cx="216.00322640642105" cy="258.9463362498733" opacity="0.5245808065472407"></circle><circle r="6.163091936633098" cx="641.01155812033" cy="681.104872855393" opacity="0.6468618921992821"></circle><circle r="7.087776082624652" cx="368.1153403131604" cy="364.10967643913455" opacity="0.7920727653515469"></circle><circle r="7.159845286623922" cx="195.69068287869442" cy="475.8461552133567" opacity="0.48169438817695565"></circle><circle r="5.231171197156154" cx="168.68485339260124" cy="205.92105207749574" opacity="0.686636879502126"></circle><circle r="9.669872793403933" cx="406.2150728243472" cy="551.7756162409208" opacity="0.6346274614557482"></circle><circle r="4.94667863567027" cx="556.392857342433" cy="732.1642585126717" opacity="0.929803646214935"></circle><circle r="4.166058213163035" cx="614.0288456905944" cy="785.1003926019387" opacity="0.7488265425296029"></circle><circle r="5.172759171358436" cx="22.95916020360038" cy="563.8692882923283" opacity="0.9185782144372883"></circle><circle r="4.273225143713384" cx="460.0596591308382" cy="621.202903500654" opacity="0.7310276550751159"></circle><circle r="8.91901887541169" cx="648.7974213704058" cy="218.35862284401404" opacity="0.24052272925520127"></circle><circle r="5.429912451403791" cx="41.52763533876876" cy="283.9463393949056" opacity="0.7300474172112656"></circle><circle r="6.413711860395717" cx="447.8367164875262" cy="754.3723778411191" opacity="0.37508248928876853"></circle><circle r="5.3591384328553495" cx="331.7507556608465" cy="489.13121212654625" opacity="0.777456712320428"></circle><circle r="7.666692866190272" cx="647.254459416948" cy="66.43679729596919" opacity="0.3289020520089887"></circle><circle r="7.818744995043241" cx="221.13715689593778" cy="102.51076980701394" opacity="0.1732386575095873"></circle><circle r="5.201363722104699" cx="257.98784645136624" cy="575.5307738442777" opacity="0.22621944269409733"></circle><circle r="4.181096620413634" cx="473.89574652224724" cy="738.2569139740382" opacity="0.9551238298822341"></circle><circle r="4.497764889904626" cx="26.94609340165493" cy="308.31751856157763" opacity="0.7109597562103653"></circle><circle r="5.518103171505734" cx="124.33193977533662" cy="153.1554226667961" opacity="0.5348120213019585"></circle><circle r="7.46719313495864" cx="756.6827713634324" cy="639.357789388463" opacity="0.5037077231466953"></circle><circle r="5.702581576264075" cx="318.84840760205196" cy="221.17162126261974" opacity="0.3358251159910204"></circle><circle r="5.998708912155626" cx="19.714223530956524" cy="682.1283390414176" opacity="0.10328920644836811"></circle><circle r="6.64807328769686" cx="426.07008104712105" cy="343.82408352817214" opacity="0.9763754596006162"></circle><circle r="8.128598127958412" cx="524.3787593367975" cy="226.2072765767787" opacity="0.7734320661712069"></circle><circle r="5.844864829032879" cx="477.71971618138565" cy="586.4069933599859" opacity="0.29512570281802053"></circle><circle r="6.084972498873387" cx="87.89292299845664" cy="315.938725399226" opacity="0.745482759062446"></circle><circle r="6.771372183686575" cx="323.9100110416619" cy="524.5131874470616" opacity="0.48996790814005564"></circle><circle r="10.473044930541516" cx="139.32689617188691" cy="24.00476681105907" opacity="0.10432501105857674"></circle><circle r="5.252862131393776" cx="174.86692913903784" cy="655.6332980933998" opacity="0.7397996846742936"></circle><circle r="10.086650676423318" cx="235.0467134148642" cy="764.7197083725513" opacity="0.19401271230756262"></circle><circle r="4.956522237794141" cx="324.1903743165403" cy="98.7845092548742" opacity="0.29652658787157465"></circle><circle r="6.58288314893616" cx="670.8124907659209" cy="254.62039027820714" opacity="0.8552068545896703"></circle><circle r="4.950686226242936" cx="551.704712945654" cy="279.80639276284927" opacity="0.9099623118392327"></circle><circle r="6.308149232787454" cx="139.08476546372538" cy="75.58534176751883" opacity="0.7679251934543083"></circle><circle r="7.955270580821386" cx="675.2866349466839" cy="749.928812307623" opacity="0.5130656223208652"></circle><circle r="11.292961474013723" cx="433.51327424235933" cy="67.08211951079983" opacity="0.9534496609931001"></circle><circle r="5.947007211796009" cx="136.54412271850927" cy="121.87859529431799" opacity="0.1990963679964528"></circle><circle r="4.98491712506516" cx="745.0983313656617" cy="387.4715051018476" opacity="0.5389452220052193"></circle><circle r="5.29190793206608" cx="266.7599474128719" cy="601.9354214901766" opacity="0.700610637420211"></circle><circle r="7.401206379773584" cx="779.1895607412652" cy="333.4693639000735" opacity="0.7796839345696296"></circle><circle r="5.192163209825579" cx="640.1328745224112" cy="147.11854154459908" opacity="0.24510585002188215"></circle><circle r="6.90113676613281" cx="124.41291800938683" cy="627.6007445118089" opacity="0.8228070781419512"></circle><circle r="6.6505350358270565" cx="354.59081288511084" cy="110.78080167724087" opacity="0.5738308681847205"></circle><circle r="6.603553348277116" cx="22.61421188037431" cy="134.75801078713275" opacity="0.5888885683901102"></circle><circle r="4.3689122289726825" cx="691.3400077697305" cy="377.3894346257881" opacity="0.4290746320540467"></circle><circle r="8.436231582512892" cx="343.9542412751559" cy="247.3759833456972" opacity="0.796858629077601"></circle><circle r="4.5285223829373935" cx="579.4098918415383" cy="312.0000201277901" opacity="0.9900112261871952"></circle><circle r="7.196327107791314" cx="679.8709482394248" cy="90.18962944324056" opacity="0.37744519062054205"></circle><circle r="5.262102468211747" cx="162.76104927836423" cy="715.4740794648097" opacity="0.4930873508370841"></circle><circle r="7.4785518132662165" cx="90.27150419512257" cy="721.6659993511179" opacity="0.8185450103783325"></circle><circle r="8.085226043515902" cx="259.4474014296101" cy="338.2530045291511" opacity="0.5605913189998741"></circle><circle r="5.189858105862104" cx="265.5860582301603" cy="79.48326372893364" opacity="0.9746189856148296"></circle><circle r="6.199380609256373" cx="209.04450580893388" cy="192.61652676946653" opacity="0.3250607705890139"></circle><circle r="4.185798073753815" cx="162.80157912226696" cy="167.67131049685744" opacity="0.4340629597352075"></circle><circle r="9.384035659455025" cx="420.4939556971558" cy="776.7069111145424" opacity="0.26153705969519747"></circle><circle r="4.948712063962773" cx="223.97331706188666" cy="461.0793757624658" opacity="0.11806876386807554"></circle><circle r="3.876606051338671" cx="189.11460647228247" cy="785.0925248735987" opacity="0.27686342921758655"></circle><circle r="8.611944338164934" cx="389.9182355219601" cy="457.4230825296473" opacity="0.9830514027000371"></circle><circle r="4.1811960081598" cx="156.86019216800054" cy="685.8545735615228" opacity="0.9357688411111591"></circle><circle r="6.321186666336024" cx="638.3594982539241" cy="341.5460679914232" opacity="0.32609798637462173"></circle><circle r="6.3506066033959385" cx="477.2353180709413" cy="77.03799263483941" opacity="0.4772779657157531"></circle><circle r="5.859789244603659" cx="353.9410848447046" cy="145.02127259144302" opacity="0.936230933219584"></circle><circle r="9.184449856121399" cx="319.0849969649817" cy="324.41691654255527" opacity="0.5931915554244471"></circle><circle r="6.638648855855397" cx="384.57595272458224" cy="601.2978434984003" opacity="0.6205406900329883"></circle><circle r="5.705780946135822" cx="290.4308938455357" cy="552.9365554588367" opacity="0.30294817576120237"></circle><circle r="4.001834160583911" cx="38.83420522618912" cy="334.83704581483477" opacity="0.5211386985285349"></circle><circle r="5.896963098431141" cx="293.391252232451" cy="276.97324404275366" opacity="0.7442838958602941"></circle><circle r="5.2697723525228515" cx="783.9642450680939" cy="708.5560319477381" opacity="0.772323368660537"></circle><circle r="9.84204471096047" cx="126.55584167823544" cy="411.66579621055115" opacity="0.6011493865924683"></circle><circle r="7.897343554668993" cx="783.8239560806121" cy="225.35012496983452" opacity="0.9370178469325002"></circle><circle r="9.684700364872729" cx="399.75658068568896" cy="25.287143223309258" opacity="0.28300015603206163"></circle><circle r="5.542322901033719" cx="716.2367691629426" cy="757.949921060368" opacity="0.9406332229688639"></circle><circle r="9.082462450622424" cx="734.1153254332942" cy="257.99491144419324" opacity="0.3638396311973643"></circle><circle r="10.510052575912717" cx="608.9344775779556" cy="241.94600845295824" opacity="0.958809723849721"></circle><circle r="6.479747763356018" cx="222.5382287515376" cy="61.11973518544916" opacity="0.39526557310483734"></circle><circle r="8.18338080634772" cx="619.6443581833913" cy="31.429496285216054" opacity="0.7128353375616763"></circle><circle r="6.552848998845892" cx="145.86472815754576" cy="186.60007641612864" opacity="0.3390927379980143"></circle><circle r="5.871685841602746" cx="618.6306792888321" cy="718.8019531183137" opacity="0.4841208615686665"></circle><circle r="6.360848042641352" cx="461.84826591277766" cy="203.78145801647653" opacity="0.3530995044414321"></circle><circle r="5.2671630877238655" cx="372.394944678027" cy="569.8658181524943" opacity="0.6625928633493102"></circle><circle r="5.639338216915275" cx="682.8500103572908" cy="701.61424971796" opacity="0.3858339837234481"></circle><circle r="5.4294214530928535" cx="105.754562268681" cy="182.35457721300887" opacity="0.3080259673961676"></circle><circle r="8.483807014715108" cx="645.6734524303813" cy="181.078464747848" opacity="0.8765614629924825"></circle><circle r="4.999673698468068" cx="785.4926142360893" cy="571.647490681518" opacity="0.883190147117427"></circle><circle r="4.660045134778183" cx="141.64448667480113" cy="458.8068058976034" opacity="0.7003997840807864"></circle><circle r="5.653828481427179" cx="259.96486482318926" cy="489.6761349231752" opacity="0.6294960213272952"></circle><circle r="7.5431563877579535" cx="701.8476883072154" cy="409.4361257077267" opacity="0.909938292260429"></circle><circle r="6.212012954085454" cx="455.4562184177093" cy="111.16544120845742" opacity="0.6490432565810598"></circle><circle r="4.346050368566822" cx="259.21587680766237" cy="104.60965610151194" opacity="0.32275410737888066"></circle><circle r="6.276525133445451" cx="219.58837342554497" cy="706.6135442093027" opacity="0.32506715051436347"></circle><circle r="8.03166759373974" cx="189.7968370603561" cy="75.57616117014314" opacity="0.2676577562757079"></circle><circle r="4.7488161999056135" cx="324.7449735257651" cy="273.93234095532915" opacity="0.9580522022299094"></circle><circle r="5.704870827751437" cx="262.5944043004496" cy="395.6919298250691" opacity="0.5901573512109339"></circle><circle r="4.616286534005779" cx="293.82956114451594" cy="401.79840853141155" opacity="0.8669546712469313"></circle><circle r="4.362713915841033" cx="681.3412646299115" cy="122.95208052521616" opacity="0.15418025505939964"></circle><circle r="7.293704489701936" cx="660.1293276485692" cy="312.7498003308626" opacity="0.5005026958203639"></circle><circle r="4.744704419927733" cx="582.3966186657259" cy="786.9514753568006" opacity="0.26245705220499405"></circle><circle r="5.90462875895638" cx="327.8257869686739" cy="689.2654067942531" opacity="0.5263789153243845"></circle><circle r="5.909904042287471" cx="448.5900305470943" cy="672.4467152615493" opacity="0.883460494661462"></circle><circle r="7.707570183998287" cx="49.244924884350574" cy="665.5579448759268" opacity="0.723407364988579"></circle><circle r="9.662246033451119" cx="20.6769745078503" cy="189.64341219825798" opacity="0.65732742140044"></circle><circle r="3.2442548484953972" cx="498.9925334973287" cy="561.8861336852631" opacity="0.1986585868667438"></circle><circle r="5.026987024738549" cx="483.193986083142" cy="691.2653166118616" opacity="0.6366326967499994"></circle><circle r="7.399374162986544" cx="451.6562070412164" cy="425.21361736082895" opacity="0.15624429795909767"></circle><circle r="7.374021021153446" cx="235.93450557966548" cy="547.595042169015" opacity="0.932279949330536"></circle><circle r="3.620229168026469" cx="173.12794248658807" cy="255.44407662799756" opacity="0.7092574806987306"></circle><circle r="4.189412291784299" cx="10.66056390394459" cy="748.6260673122669" opacity="0.8749465116412265"></circle><circle r="7.275043381370946" cx="548.6687564974123" cy="319.00222887649164" opacity="0.7942487920187581"></circle><circle r="6.71815417543327" cx="423.8642744430915" cy="636.2166128001198" opacity="0.9981036621608156"></circle><circle r="6.322517224131442" cx="237.07304232826567" cy="182.4253197271185" opacity="0.9518514823363385"></circle><circle r="6.189522377799286" cx="782.6580041109424" cy="384.40743555575597" opacity="0.6963020365125792"></circle><circle r="4.119860116433735" cx="772.3564798162658" cy="11.993800754578379" opacity="0.9516587314723454"></circle><circle r="4.491428251679704" cx="112.98922132876275" cy="480.32509320140537" opacity="0.8260688100950431"></circle><circle r="8.242277473052711" cx="297.63376197859185" cy="624.6324948202486" opacity="0.6553513505480142"></circle><circle r="7.070328954246435" cx="428.47360659117817" cy="453.65577990753144" opacity="0.500900540350856"></circle><circle r="4.297477533146603" cx="137.8737595830757" cy="655.5096759025994" opacity="0.7257079988433525"></circle><circle r="3.9841410850597563" cx="454.9768017500603" cy="145.93600365933995" opacity="0.12422446011387177"></circle><circle r="7.237383364992092" cx="747.0996043099285" cy="57.658681965767826" opacity="0.624334452192291"></circle><circle r="6.42238663309803" cx="378.2895940500027" cy="636.7774818399364" opacity="0.3811062574573104"></circle><circle r="8.458774771333431" cx="482.510951934979" cy="296.6259090022313" opacity="0.9653999696682893"></circle><circle r="5.316450853677345" cx="253.61702168059045" cy="442.80692290589025" opacity="0.3144709685365694"></circle><circle r="5.9561919268001" cx="31.940999484048625" cy="508.37168235158106" opacity="0.3851814671284588"></circle><circle r="4.841918817724081" cx="604.5379094366889" cy="514.6735534862281" opacity="0.30184827919660284"></circle><circle r="8.051005466124384" cx="324.04196917637535" cy="410.72127120452967" opacity="0.671692515123895"></circle></g></svg>